# xmcd CD database file
#
# Track frame offsets:
#	150
#	12655
#	33848
#	48678
#	57373
#	65645
#	75705
#	88645
#	101020
#	113625
#	126468
#	136550
#	145018
#	156598
#
# Disc length: 2234 seconds
#
# Revision: 0
# Processed by: cddbd v1.4PL0 Copyright (c) Steve Scherf et al.
# Submitted via: CDex 1.50
#
DISCID=c308b80e
DTITLE=The Golden Gate Quartet - Sacrée Série
DYEAR=1900
DGENRE=Jazz
TTITLE0=When The Saints Go Marchin'in
TTITLE1=Ho Happy Day
TTITLE2=Swing Low Sweet Chariot
TTITLE3=Casey Jones
TTITLE4=Ballin' the Jack
TTITLE5=Same Train
TTITLE6=Birth of the Blues
TTITLE7=I Just Telephone Upstairs
TTITLE8=Invisible Hands
TTITLE9=The King of Kings
TTITLE10=Primrose Lane
TTITLE11=Good News
TTITLE12=Me and Brother Bill
TTITLE13=Get on Board
EXTD=
EXTT0=
EXTT1=
EXTT2=
EXTT3=
EXTT4=
EXTT5=
EXTT6=
EXTT7=
EXTT8=
EXTT9=
EXTT10=
EXTT11=
EXTT12=
EXTT13=
PLAYORDER=
